<?xml version="1.0" encoding="utf-8"?>
<!-- Generator: Adobe Illustrator 16.0.0, SVG Export Plug-In . SVG Version: 6.00 Build 0)  -->
<!DOCTYPE svg PUBLIC "-//W3C//DTD SVG 1.1//EN" "http://www.w3.org/Graphics/SVG/1.1/DTD/svg11.dtd">
<svg version="1.1" xmlns="http://www.w3.org/2000/svg" xmlns:xlink="http://www.w3.org/1999/xlink" x="0px" y="0px" width="128px"
	 height="128px" viewBox="0 0 128 128" enable-background="new 0 0 128 128" xml:space="preserve">
<g id="_x5F_128">
	
		<rect id="Bse" x="20.72" y="21.22" transform="matrix(-0.7071 -0.7071 0.7071 -0.7071 63.1464 154.1561)" fill="#343434" stroke="#4CAF4F" stroke-width="5" stroke-miterlimit="10" width="85.56" height="85.56"/>
	<path display="none" fill="#242424" d="M80.083,47.914C79.78,47.967,79.463,48,79.125,48c-1.778,0-3.046-0.77-3.837-1.874
		c-0.253,0.203-0.543,0.369-0.85,0.517c-0.794,0.751-1.898,1.232-3.313,1.232c-2.204,0-3.653-1.168-4.351-2.706
		c-0.106-0.049-0.215-0.095-0.315-0.15c-0.476,0.147-1.003,0.231-1.584,0.231c-0.537,0-1.025-0.075-1.473-0.202
		c-0.287,0.046-0.584,0.077-0.902,0.077c-2.171,0-3.603-1.137-4.313-2.641c-0.104,0.006-0.205,0.016-0.313,0.016
		c-1.407,0-2.496-0.485-3.288-1.23c-0.212,0.042-0.436,0.067-0.666,0.085c0.241,2.144-0.722,4.442-2.888,5.296
		c-0.025,0.046-0.043,0.095-0.07,0.14c-0.123,0.595-0.347,1.163-0.661,1.675c-0.172,0.714-0.486,1.386-0.939,1.956
		c-0.206,1.114-0.754,2.147-1.626,2.882C47.345,55.406,45.769,57.25,43,57.25c-0.072,0-0.137-0.011-0.207-0.014
		c-0.674,1.083-1.778,1.893-3.315,2.088c1.228,0.947,1.848,2.478,1.857,4.014c0.195,0.639,0.276,1.317,0.238,1.989
		c0.018,0.358,0.005,0.719-0.043,1.073c0.154,1.231-0.082,2.521-0.725,3.565c0.159,0.69,0.195,1.413,0.093,2.115
		c0.109,0.789,0.059,1.604-0.161,2.367c0.527,1.85,0.094,4.014-1.316,5.334l32.815,32.814L108.5,76.333L80.083,47.914z"/>
	<path fill="#242424" d="M91.585,45.082C90.987,45.348,90.293,45.5,89.5,45.5c-0.24,0-0.454-0.038-0.676-0.065
		C88.561,45.474,88.289,45.5,88,45.5c-0.296,0-0.567-0.038-0.836-0.079c-0.29,0.048-0.592,0.079-0.914,0.079
		c-0.723,0-1.359-0.131-1.92-0.354c-0.337,0.066-0.696,0.104-1.08,0.104c-0.539,0-1.017-0.09-1.465-0.219
		c-0.464,0.139-0.974,0.219-1.535,0.219c-0.192,0-0.371-0.019-0.549-0.039c-0.65,0.338-1.423,0.539-2.326,0.539
		c-0.268,0-0.52-0.023-0.765-0.056C76.097,45.882,75.526,46,74.875,46c-0.813,0-1.523-0.16-2.132-0.438
		C72.507,45.6,72.262,45.625,72,45.625c-0.019,0-0.036-0.003-0.054-0.003c-0.718,0.468-1.615,0.753-2.696,0.753
		c-1.008,0-1.858-0.244-2.551-0.656c-0.111,0.007-0.209,0.031-0.324,0.031c-0.354,0-0.684-0.035-0.999-0.092
		c-0.315,0.057-0.647,0.092-1.001,0.092c-0.856,0-1.595-0.18-2.224-0.485c-0.556,0.223-1.182,0.36-1.901,0.36
		c-0.008,0-0.014-0.001-0.022-0.001C59.654,45.861,58.997,46,58.25,46c-0.982,0-1.806-0.242-2.489-0.636
		C55.075,45.763,54.239,46,53.25,46c-0.74,0-1.386-0.143-1.955-0.377c-0.016,0-0.029,0.002-0.045,0.002
		c-0.622,0-1.182-0.095-1.684-0.263c-0.064,0.003-0.125,0.013-0.191,0.013c-1.052,0-1.929-0.27-2.638-0.715L34.179,57.416
		c0.237,0.313,0.425,0.659,0.581,1.021c0.134-0.009,0.267-0.02,0.407-0.02c0.353,0,0.672,0.047,0.982,0.108
		c0.168-0.015,0.339-0.025,0.518-0.025c4.193,0,5.657,4.228,4.397,7.185c0.004,0.095,0.021,0.188,0.02,0.282
		c0.393,1.012,0.477,2.155,0.25,3.224c0.441,1.418,0.304,3.042-0.411,4.334c0.184,0.391,0.336,0.796,0.422,1.223
		c0.234,0.612,0.341,1.272,0.35,1.934c0.125,1.627-0.441,3.313-1.691,4.37l32.071,31.569l43.368-44.055L91.585,45.082z"/>
	<text transform="matrix(1 0 0 1 33.5127 55)" fill="#4CAF4F" font-family="'MicrosoftPhagsPa'" font-size="20">Simply</text>
	<rect x="14" y="56" fill="none" width="98" height="55"/>
	<text transform="matrix(1 0 0 1 32.5117 81.9082)" fill="#4CAF4F" font-family="'MicrosoftPhagsPa'" font-size="35">TAB</text>
</g>
<g id="_x36_4_1_">
</g>
<g id="_x33_2_1_">
</g>
<g id="_x31_6">
</g>
<g id="_x5F_64_x5F_" display="none">
</g>
<g id="_x5F_32_x5F_" display="none">
</g>
<g id="_x5F_16_x5F_" display="none">
</g>
</svg>
